<svg id="Layer_1" data-name="Layer 1" xmlns="http://www.w3.org/2000/svg" viewBox="0 0 120.83 101.34"><defs><style>.cls-1{fill:#fff;}</style></defs><path class="cls-1" d="M62.6,61.16c.83-3.85,1.91-7.63,2.36-11.49.31-2.56-.28-5.23-.46-7.85-.31-4.53-1-9.06.15-13.56A8.82,8.82,0,0,1,66,25.36a1.72,1.72,0,0,1,3.19.61,9.44,9.44,0,0,1,.31,3.3c-.43,4.6-.94,9.19-1.49,13.78-.26,2.17-.77,4.31-1,6.49a23.25,23.25,0,0,0,.17,3.81c.31,5.41.61,10.83,1,16.23a32.25,32.25,0,0,0,.58,3.78c.11.64.17,1.27-.61,1.45s-1.07-.38-1.15-1c-.31-2.53-.69-5-.88-7.59s-.2-4.94-.29-7.41a7.13,7.13,0,0,0-.11-.77l-.31,0c-.28,1.37-.54,2.74-.85,4.1-.54,2.31-1,4.66-1.7,6.91a13.68,13.68,0,0,1-4,6.12c-2.57,2.29-4.49,2.18-6.69-.44-.93.65-1.83,1.36-2.81,1.94a10.13,10.13,0,0,1-6.57,1.29c-3.2-.39-4.8-2.17-5.31-5.85-.4.3-.72.53-1,.78-1.93,1.53-4,2.87-6.52,3-2.84.12-4.55-1.8-4.21-4.63a14.54,14.54,0,0,1,2.18-6l.77-1.23c-1.56.13-3.08.36-4.6.34a3.67,3.67,0,0,1-1.79-.94c-.15-.11-.09-.73.08-.94a.92.92,0,0,1,.91-.16c1.44,1,2.92.54,4.21-.07,2.12-1,4.1-2.28,6.13-3.45.21-.11.38-.37.59-.39a10.72,10.72,0,0,1,1.5,0c-.14.51-.13,1.15-.45,1.51-1.86,2.11-4,4-5.65,6.27a14.92,14.92,0,0,0-2,5.05c-.51,2,.77,3.26,2.78,2.77a12,12,0,0,0,3.77-1.7,15.28,15.28,0,0,0,5.43-6.08A16.56,16.56,0,0,1,42,62.61c.32-.37,1.09-.34,1.66-.49,0,.59.29,1.31.05,1.74-.82,1.41-1.87,2.68-2.73,4.06a11.84,11.84,0,0,0-1.41,3c-.8,2.91.88,5.09,3.89,5.21,4.33.16,7.2-2,9.21-5.69,1.15-2.09,2.29-4.19,3.57-6.2a6.33,6.33,0,0,1,4.52-3.06A14.59,14.59,0,0,1,62.6,61.16Zm-.48,3.73c.05-1.77-.56-2.24-1.83-1.72a4.07,4.07,0,0,0-1.36.93c-2.27,2.27-3.49,5.19-4.9,8a1.79,1.79,0,0,0,2.79,2.22A14.72,14.72,0,0,0,62.12,64.89Zm4.26-24.18a52.36,52.36,0,0,0,1-13.9C65.1,31.3,66,36,66.38,40.71Z" transform="translate(-1.02 -0.81)"/><path class="cls-1" d="M13.5,40.83q-3.43,3.31-6.86,6.64c-.48.46-.93,1.24-1.64.55s0-1.27.47-1.72c2.8-2.73,5.64-5.42,8.43-8.15a2.89,2.89,0,0,0,.92-1.45c1-6.45,1.88-12.92,2.8-19.38a2,2,0,0,0-.12-.44,8.79,8.79,0,0,0-.93.55C11.88,20.94,7.2,24.47,2.48,28c-.35.26-1,.16-1.46.23.13-.49.1-1.16.42-1.43C3.69,24.84,6,23,8.32,21.18c2.73-2.08,5.53-4.07,8.34-6a1.89,1.89,0,0,0,1-2,3.79,3.79,0,0,1,0-1.54c.1-.33.54-.56.83-.83a3.35,3.35,0,0,1,.68.85,7.91,7.91,0,0,1,.15,1.53c.58-.35,1-.61,1.41-.85C27,8.68,33.21,5,39.44,1.37c.68-.4,1.66-1.06,2.16,0S40.91,2.67,40.24,3A177.73,177.73,0,0,0,20,15.1a2,2,0,0,0-.72,1.37,133.13,133.13,0,0,1-2.17,17.9,7.5,7.5,0,0,0,0,1c1.94-1.47,3.73-2.78,5.48-4.15A80.83,80.83,0,0,1,37.12,22a2.71,2.71,0,0,1,1-.4,1.26,1.26,0,0,1,1,.41c.13.26,0,.73-.2,1.06-.09.18-.38.29-.59.39-6.74,3.16-12.49,7.8-18.45,12.15a11.17,11.17,0,0,0-4.51,7c-3.08,13.07-6.82,26-11,38.72-.35,1-.83,2.07-1.27,3.09-.26.62-.67,1.29-1.39.85-.3-.18-.43-1.08-.27-1.52C6.44,70.08,10,56,13.67,41.91c.07-.3.1-.61.15-.91Z" transform="translate(-1.02 -0.81)"/><path class="cls-1" d="M92.32,70.46c-.87,1.24-1.58,2.4-2.43,3.43q-2.2,2.69-4.56,5.23a1.68,1.68,0,0,0-.5,1.89,35.37,35.37,0,0,1,1.46,10.86,10.82,10.82,0,0,1-4.23,8.74,7.2,7.2,0,0,1-8.2.5,7.52,7.52,0,0,1-4.11-7.38,11.8,11.8,0,0,1,4.63-8.33c2.16-1.82,4.5-3.44,6.76-5.14,1.48-1.11,1.52-1.26.66-3a16.06,16.06,0,0,1-2.45.35A4.53,4.53,0,0,1,75,74.1a12.41,12.41,0,0,1,3.15-12.59,7.58,7.58,0,0,1,3.42-1.8,4.31,4.31,0,0,1,5.24,4.41,1.58,1.58,0,0,1-.21.91,4.31,4.31,0,0,1-1,.66c-.19-.32-.57-.67-.54-1a2.74,2.74,0,0,0-1.45-3.12,3.34,3.34,0,0,0-3.78.72,10.66,10.66,0,0,0-3.45,9.5,3.91,3.91,0,0,0,2.83,3.87c1.5.4,2.39-.47,2.38-2a8.5,8.5,0,0,1,1.56-5.17,2.09,2.09,0,0,1,2.45-1.06c1.13.36,1.3,1.32,1.3,2.31a7.5,7.5,0,0,1-2.47,5.16,2,2,0,0,0-.32,2.77c.35-.32.67-.6,1-.9a41.5,41.5,0,0,0,6.81-9.51,16.73,16.73,0,0,0,.74-2.61c.46-1.4.94-2.79,1.48-4.16.29-.72.76-1.46,1.69-1.14s.79,1.26.57,1.94c-.58,1.77-1.24,3.53-2,5.25a4.7,4.7,0,0,0,0,3.82c.45,1.1,1.3,1.33,2,.4a50.11,50.11,0,0,0,3.09-4.92c.32-.56.44-1.34,1.29-1.07s.77,1.08.43,1.69A35.72,35.72,0,0,1,98,71.78c-1.86,2.29-4,1.9-5.38-.73C92.59,70.91,92.51,70.78,92.32,70.46Zm-9.21,10.7c-3.45,2.41-6.77,4.47-9.34,7.48a9,9,0,0,0-2.18,5.08,5.65,5.65,0,0,0,3.29,5.84,5.26,5.26,0,0,0,6.33-.64,7.93,7.93,0,0,0,3-5.29,38.29,38.29,0,0,0-.08-6.77C84,85,83.49,83.21,83.11,81.16Zm.23-8.48.33.11c1.15-1.21,1.51-2.2,1-3.36Z" transform="translate(-1.02 -0.81)"/><path class="cls-1" d="M105.58,66.94a5.08,5.08,0,0,0,5.61,3.79c3.7-.43,6.35-2.57,8.6-5.35.2-.25.31-.64.56-.76a6.63,6.63,0,0,1,1.35-.31c0,.44.26,1,.1,1.29-1.76,3.85-7.77,7.3-11.92,6.9A6.69,6.69,0,0,1,104.74,62c1.68-2.67,5.17-4.25,7.9-3.56,2.58.65,3.51,3,2,5.17-2,2.8-4.93,3.61-8.24,3.32-.2,0-.39,0-.59-.06C105.73,66.83,105.69,66.87,105.58,66.94Zm0-2a6.61,6.61,0,0,0,7.1-1.84c.42-.52.88-1.61.63-2a2.79,2.79,0,0,0-2.07-1C108.28,60.15,105.74,62.68,105.62,64.9Z" transform="translate(-1.02 -0.81)"/><path class="cls-1" d="M95.56,57.6a2.64,2.64,0,0,1-2.89-2.78,4.24,4.24,0,0,1,3.86-4.27,2.77,2.77,0,0,1,2.81,2.92A4,4,0,0,1,95.56,57.6Zm1.94-4.43c-.22-.15-.61-.64-1-.69a2.11,2.11,0,0,0-1.89,2.1,1.7,1.7,0,0,0,1.08,1.12C96.51,55.86,97.5,54.62,97.5,53.17Z" transform="translate(-1.02 -0.81)"/><path class="cls-1" d="M45.83,60.5A2.59,2.59,0,0,1,43,57.62a4,4,0,0,1,4-3.77,2.83,2.83,0,0,1,2.94,2.92A4,4,0,0,1,45.83,60.5Zm-.24-1.83c1.35,0,2.53-1,2.38-1.88a1.67,1.67,0,0,0-1.1-1.06,1.91,1.91,0,0,0-2,1.89C44.92,58.07,45.42,58.45,45.59,58.67Z" transform="translate(-1.02 -0.81)"/></svg>